# xmcd
#
# Track frame offsets: 
#        150
#        8618
#        48524
#        88123
#        108879
#        134454
#        152310
#        227716
#        268120
#
# Disc length: 4764 seconds
#
# Revision: 0
# Processed by: cddbd v1.4PL0 Copyright (c) Steve Scherf et al.
# Submitted via: ExactAudioCopy v0.90b4
#
DISCID=67129a09
DTITLE=Duarte, Chris - Tape Trips_Volume One
DYEAR=2002
DGENRE=Hard Rock
TTITLE0=Takin' A Walk
TTITLE1=All The Love I Miss Lovin'
TTITLE2=Are You The One?
TTITLE3=Friends
TTITLE4=Never Will Change
TTITLE5=Beat Around The Bush
TTITLE6=Poison (Commit A Crime)
TTITLE7=Shakey Ground
TTITLE8=Catfish Blues
EXTD=
EXTT0=
EXTT1=
EXTT2=
EXTT3=
EXTT4=
EXTT5=
EXTT6=
EXTT7=
EXTT8=Catfish Blues
PLAYORDER=
